<svg width="56" height="56" fill="none" xmlns="http://www.w3.org/2000/svg"><path d="M37.978 32.945l-7.808-5.856V15.16c0-1.199-.97-2.168-2.17-2.168a2.167 2.167 0 00-2.168 2.168v13.014c0 .683.321 1.327.868 1.735l8.675 6.506c.39.293.846.434 1.3.434a2.15 2.15 0 001.736-.87 2.165 2.165 0 00-.433-3.034z" fill="#fff"/><path d="M28 0C12.56 0 0 12.56 0 28s12.56 28 28 28 28-12.56 28-28S43.44 0 28 0zm0 51.662C14.954 51.662 4.338 41.046 4.338 28S14.954 4.338 28 4.338c13.048 0 23.662 10.616 23.662 23.662S41.046 51.662 28 51.662z" fill="#fff"/></svg>