<svg width="56" height="56" fill="none" xmlns="http://www.w3.org/2000/svg"><path d="M39.594 13.201V8.203a1.64 1.64 0 00-1.64-1.64h-1.642V1.64A1.64 1.64 0 0034.672 0h-6.563a1.64 1.64 0 00-1.64 1.64v4.922h-1.64a1.64 1.64 0 00-1.642 1.641v5.912c-2.092 2.345-3.28 5.47-3.28 8.682v3.672H8.202C3.68 26.469 0 30.149 0 34.672a8.196 8.196 0 003.287 6.562A8.196 8.196 0 000 47.797C0 52.32 3.68 56 8.203 56h39.594C52.32 56 56 52.32 56 47.797V31.39c0-9.479-7.26-17.35-16.406-18.19zm-9.844-9.92h3.281v3.281H29.75v-3.28zm-3.281 6.563h9.843v3.281H26.47V9.844zM3.28 34.672a4.927 4.927 0 014.922-4.922h11.703v3.281H8.203a1.64 1.64 0 000 3.282h11.703v3.28H8.203a4.927 4.927 0 01-4.922-4.921zm4.922 18.047a4.927 4.927 0 01-4.922-4.922 4.927 4.927 0 014.922-4.922h11.703v3.281H8.203a1.64 1.64 0 000 3.282h11.868a8.169 8.169 0 001.48 3.28H8.203zm44.516-4.922a4.928 4.928 0 01-4.922 4.922H28.109a4.928 4.928 0 01-4.922-4.922v-25c0-2.363.854-4.655 2.358-6.39h12.408c8.142 0 14.766 6.721 14.766 14.984v16.406z" fill="#FF6A04"/></svg>