<svg width="46" height="33" fill="none" xmlns="http://www.w3.org/2000/svg"><path d="M24.052 24.34c0-4.58 1.704-9.159 5.111-13.738C32.571 6.022 36.68 2.489 41.49 0L46 4.928c-6.715 3.384-10.924 7.565-12.627 12.543h1.202c1.804 0 3.357.597 4.66 1.791 1.203 1.295 1.804 2.937 1.804 4.928 0 2.39-.902 4.43-2.706 6.122C36.53 32.104 34.425 33 32.02 33c-2.305 0-4.21-.796-5.713-2.39-1.503-1.492-2.255-3.583-2.255-6.27zM0 24.34c0-4.58 1.704-9.159 5.111-13.738C8.52 6.022 12.627 2.489 17.438 0l4.51 4.928C15.434 8.213 11.224 12.394 9.32 17.47h1.353c1.704 0 3.207.597 4.51 1.791 1.203 1.295 1.804 2.937 1.804 4.928 0 2.39-.902 4.43-2.706 6.122C12.477 32.104 10.372 33 7.967 33c-2.305 0-4.209-.796-5.712-2.39C.752 29.119 0 27.028 0 24.34z" fill="#DADADA"/></svg>