<svg width="46" height="33" fill="none" xmlns="http://www.w3.org/2000/svg"><path d="M21.948 8.66c0 4.58-1.704 9.159-5.111 13.738C13.429 26.978 9.32 30.511 4.51 33L0 28.072c6.715-3.384 10.924-7.565 12.627-12.543h-1.202c-1.804 0-3.357-.597-4.66-1.791C5.562 12.443 4.96 10.8 4.96 8.81c0-2.39.902-4.43 2.706-6.122C9.47.896 11.575 0 13.98 0c2.305 0 4.21.796 5.713 2.39 1.503 1.492 2.255 3.583 2.255 6.27zM46 8.66c0 4.58-1.704 9.159-5.111 13.738-3.408 4.58-7.516 8.113-12.327 10.602l-4.51-4.928c6.515-3.285 10.724-7.466 12.628-12.543h-1.353c-1.704 0-3.207-.597-4.51-1.791-1.203-1.295-1.804-2.937-1.804-4.928 0-2.39.902-4.43 2.706-6.122C33.523.896 35.627 0 38.033 0c2.305 0 4.209.796 5.712 2.39C45.248 3.881 46 5.972 46 8.66z" fill="#DADADA"/></svg>