<svg width="56" height="56" fill="none" xmlns="http://www.w3.org/2000/svg"><g clip-path="url(#clip0)" fill="#FF6A04"><path d="M52.276 28.725a1.641 1.641 0 010-1.45l2.089-4.273a4.861 4.861 0 00-2.098-6.456l-4.2-2.229a1.641 1.641 0 01-.854-1.173l-.821-4.685A4.862 4.862 0 0040.9 4.47l-4.709.667a1.641 1.641 0 01-1.38-.449l-3.417-3.306a4.861 4.861 0 00-6.788 0l-3.418 3.307c-.369.356-.872.52-1.38.448L15.1 4.47a4.861 4.861 0 00-5.491 3.99l-.822 4.684c-.088.505-.4.933-.852 1.174l-4.201 2.229a4.861 4.861 0 00-2.098 6.455l2.089 4.273c.225.46.225.99 0 1.45l-2.09 4.273a4.861 4.861 0 002.099 6.456l4.2 2.229c.454.24.765.668.853 1.173l.822 4.685a4.858 4.858 0 005.492 3.99l4.708-.667a1.64 1.64 0 011.38.449l3.418 3.306A4.865 4.865 0 0028 56c1.22 0 2.442-.46 3.394-1.38l3.418-3.307c.369-.357.871-.52 1.38-.449l4.708.666a4.86 4.86 0 005.492-3.99l.822-4.684c.088-.505.399-.933.852-1.173l4.201-2.23a4.861 4.861 0 002.098-6.455l-2.089-4.273zM50.753 36.6l-4.2 2.23a4.85 4.85 0 00-2.52 3.468l-.822 4.684a1.645 1.645 0 01-1.858 1.35l-4.71-.666a4.85 4.85 0 00-4.077 1.325l-3.418 3.307a1.645 1.645 0 01-2.296 0l-3.419-3.307a4.846 4.846 0 00-4.077-1.325l-4.709.666a1.645 1.645 0 01-1.858-1.35l-.822-4.684a4.85 4.85 0 00-2.52-3.469l-4.2-2.229a1.645 1.645 0 01-.71-2.184l2.088-4.272a4.85 4.85 0 000-4.288l-2.089-4.272a1.645 1.645 0 01.71-2.184l4.201-2.23a4.85 4.85 0 002.52-3.468l.822-4.684a1.645 1.645 0 011.858-1.35l4.709.666a4.85 4.85 0 004.077-1.325l3.418-3.307a1.645 1.645 0 012.297 0l3.418 3.307a4.85 4.85 0 004.078 1.325l4.709-.666a1.645 1.645 0 011.857 1.35l.822 4.684a4.85 4.85 0 002.52 3.468l4.201 2.23a1.645 1.645 0 01.71 2.184l-2.089 4.272a4.85 4.85 0 000 4.287l2.089 4.273a1.645 1.645 0 01-.71 2.184z"/><path d="M39.8 16.2a1.615 1.615 0 00-2.285 0L16.2 37.516a1.615 1.615 0 102.283 2.284L39.8 18.484a1.615 1.615 0 000-2.284zm-18.261-2.734a5.928 5.928 0 00-5.922 5.921 5.928 5.928 0 005.922 5.922 5.928 5.928 0 005.921-5.922 5.928 5.928 0 00-5.921-5.921zm0 8.613a2.695 2.695 0 01-2.692-2.692 2.695 2.695 0 012.692-2.691 2.695 2.695 0 012.691 2.691 2.695 2.695 0 01-2.691 2.692zm12.921 8.613a5.928 5.928 0 00-5.92 5.92 5.928 5.928 0 005.92 5.922 5.928 5.928 0 005.922-5.921 5.928 5.928 0 00-5.921-5.921zm0 8.612a2.695 2.695 0 01-2.691-2.691 2.694 2.694 0 012.692-2.691 2.694 2.694 0 012.691 2.69 2.694 2.694 0 01-2.691 2.692z"/></g><defs><clipPath id="clip0"><path fill="#fff" d="M0 0h56v56H0z"/></clipPath></defs></svg>