<svg width="112" height="16" fill="none" xmlns="http://www.w3.org/2000/svg"><g clip-path="url(#clip0)"><path d="M15.977 6.164a.468.468 0 00-.378-.319l-4.96-.72L8.42.63a.469.469 0 00-.84 0L5.36 5.125l-4.96.72a.469.469 0 00-.26.8l3.59 3.498-.848 4.94a.469.469 0 00.68.495L8 13.245l4.436 2.333a.469.469 0 00.68-.495l-.847-4.94 3.59-3.498a.468.468 0 00.118-.48z" fill="#ED7D31"/></g><g clip-path="url(#clip1)"><path d="M39.977 6.164a.468.468 0 00-.378-.319l-4.96-.72L32.42.63a.469.469 0 00-.84 0l-2.22 4.495-4.96.72a.469.469 0 00-.26.8l3.59 3.498-.848 4.94a.469.469 0 00.68.495L32 13.245l4.436 2.333a.469.469 0 00.68-.495l-.847-4.94 3.59-3.498a.468.468 0 00.118-.48z" fill="#ED7D31"/></g><g clip-path="url(#clip2)"><path d="M63.977 6.164a.468.468 0 00-.378-.319l-4.96-.72L56.42.63a.469.469 0 00-.84 0l-2.22 4.495-4.96.72a.469.469 0 00-.26.8l3.59 3.498-.848 4.94a.469.469 0 00.68.495L56 13.245l4.436 2.333a.469.469 0 00.68-.495l-.847-4.94 3.59-3.498a.468.468 0 00.118-.48z" fill="#ED7D31"/></g><g clip-path="url(#clip3)"><path d="M87.977 6.164a.468.468 0 00-.378-.319l-4.96-.72L80.42.63a.469.469 0 00-.84 0l-2.22 4.495-4.96.72a.469.469 0 00-.26.8l3.59 3.498-.847 4.94a.469.469 0 00.68.495L80 13.245l4.436 2.333a.469.469 0 00.68-.495l-.847-4.94 3.59-3.498a.468.468 0 00.118-.48z" fill="#ED7D31"/></g><g opacity=".2" clip-path="url(#clip4)"><path d="M111.977 6.164a.469.469 0 00-.378-.319l-4.96-.72L104.42.63a.469.469 0 00-.84 0l-2.219 4.495-4.96.72a.469.469 0 00-.26.8l3.59 3.498-.847 4.94a.469.469 0 00.68.495L104 13.245l4.436 2.333a.47.47 0 00.68-.495l-.847-4.94 3.589-3.498a.469.469 0 00.119-.48z" fill="#000"/></g><defs><clipPath id="clip0"><path fill="#fff" d="M0 0h16v16H0z"/></clipPath><clipPath id="clip1"><path fill="#fff" transform="translate(24)" d="M0 0h16v16H0z"/></clipPath><clipPath id="clip2"><path fill="#fff" transform="translate(48)" d="M0 0h16v16H0z"/></clipPath><clipPath id="clip3"><path fill="#fff" transform="translate(72)" d="M0 0h16v16H0z"/></clipPath><clipPath id="clip4"><path fill="#fff" transform="translate(96)" d="M0 0h16v16H0z"/></clipPath></defs></svg>